<svg version="1.1" xmlns="http://www.w3.org/2000/svg" xmlns:xlink="http://www.w3.org/1999/xlink" x="0px" y="0px"
     viewBox="0 0 298 410.9" enable-background="new 0 0 298 410.9" xml:space="preserve">
<g id="Layer_1_copy" display="none">
    <path display="inline" d="M295.8,269L157.5,407.4c-4.7,4.7-12.3,4.7-17,0L2.2,269"/>
    <path display="inline" d="M0,143.4L140.5,2.9c4.7-4.7,12.3-4.7,17,0L298,143.4"/>
    <path display="inline" d="M0,180.1v-168c0-6.6,5.4-12,12-12h274c6.6,0,12,5.4,12,12v166"/>
    <path display="inline" d="M298,66.1v196c0,6.6-5.4,12-12,12H12c-6.6,0-12-5.4-12-12v-197"/>
</g>
<g id="Layer_1_copy_2" display="none">
    <path display="inline" d="M144.9,0.1"/>
    <path display="inline" d="M145,0.1H12c-6.6,0-12,5.4-12,12v53v115v82c0,2.6,0.8,5,2.2,7h0l0,0c0.8,1.1,1.7,2,2.8,2.8l135.5,135.4
        c4.7,4.7,12.3,4.7,17,0l135.5-135.5c1.1-0.8,2.1-1.7,2.8-2.8l0,0h0c1.4-2,2.2-4.4,2.2-7v-84v-112v-54c0-6.6-5.4-12-12-12H153"/>
</g>
<g id="Layer_1_copy_3">
    <path d="M144.9,0.1"/>
    <path d="M145,0.1H12c-6.6,0-12,5.4-12,12v53v115v82c0,2.6,0.8,5,2.2,7h0l0,0c0.8,1.1,1.7,2,2.8,2.8l135.5,135.4
        c4.7,4.7,12.3,4.7,17,0l135.5-135.5c1.1-0.8,2.1-1.7,2.8-2.8l0,0h0c1.4-2,2.2-4.4,2.2-7v-84v-112v-54c0-6.6-5.4-12-12-12H153"/>
</g>
<g id="Layer_1_copy_7">
    <path d="M144.9,0.1"/>
    <path fill="#141414" d="M149,410.9c3.1,0,6.1-1.2,8.5-3.5l135.5-135.5c1.1-0.8,2.1-1.7,2.8-2.8l0,0h0c1.4-2,2.2-4.4,2.2-7v-84v-112
        v-54c0-6.6-5.4-12-12-12L149,0"/>
</g>
<g id="Layer_1_copy_5">
    <path d="M144.9,0.1"/>
    <path fill="#7DDFDD" d="M146,14.1H24c-6.1,0-11,5.2-11,11.3v48.9v106.1v75.7c0,2.4,0.7,4,2,6h0l0,0.2c0.7,1,1.6,2,2.6,2.7
        l123.9,125c4.3,4.3,11.2,4.3,15.5,0l123.9-125c1-0.7,1.9-1.8,2.6-2.8l0-0.2h0c1.3-2,1.4-3.7,1.4-6v-77.5V75.2V25.4
        c0-6.1-4.3-11.3-10.4-11.3H153"/>
</g>
<g id="Layer_1_copy_4">
    <path d="M144.9,0.1"/>
    <path fill="#47BFBD" d="M146,31.1H39.2c-5.3,0-10.2,4.3-10.2,9.8v43.8v95.1v67.8c0,2.1,1.1,4.6,2.3,6.6h0l0-0.4
        c0.6,0.9,1.4,1.5,2.3,2.1l109.1,111.9c3.8,3.9,9.9,3.8,13.7-0.1l109.1-112c0.9-0.6,1.7-1,2.3-1.9l0,0.4h0c1.1-2,1.3-4.4,1.3-6.6
        v-69.4V85.5V40.9c0-5.5-3.9-9.8-9.2-9.8H152"/>
</g>
<g id="Layer_1_copy_6">
    <path d="M144.9,0.1"/>
    <path d="M146,49.1H53c-4.6,0-8,5-8,9.8v38v82.5v58.8c0,1.8,0.2,3,1.2,5h0l0,0c0.5,0.8,1.2,1.5,2,2l93.9,97.1
        c3.2,3.4,8.5,3.4,11.8,0l93.9-97.1c0.8-0.6,1.4-1.2,2-2l0,0h0c1-2,2.4-3.1,2.4-5v-60.2V97.6V58.9c0-4.8-4.5-9.8-9.1-9.8H151"/>
</g>
<g id="Layer_1_copy_8">
    <path d="M144.9,0.1"/>
    <path fill="#141414" d="M149,344.5c1.7-0.2,3.4-0.9,4.8-2.3l93.9-97.1c0.8-0.6,1.4-1.2,2-2l0,0h0c1-2,2.4-3.1,2.4-5v-60.2V97.6
        V58.9c0-4.8-4.5-9.8-9.1-9.8H149"/>
</g>
<g id="Layer_7">
    <rect x="143" y="3.1" width="6" height="403"/>
</g>
<g id="Layer_7_copy">
    <rect x="149" y="3.1" fill="#141414" width="6" height="403"/>
</g>
<g id="Layer_8">
    <rect x="178" y="134.1" fill="#47BFBD" width="77" height="17"/>
</g>
<g id="Layer_8_copy">
    <rect x="178" y="151.1" fill="#7DDFDD" width="77" height="17"/>
</g>
</svg>
